<?xml version="1.0" encoding="iso-8859-1"?>
<!-- Generator: Adobe Illustrator 24.3.0, SVG Export Plug-In . SVG Version: 6.00 Build 0)  -->
<svg version="1.1" id="Layer_1" xmlns="http://www.w3.org/2000/svg" xmlns:xlink="http://www.w3.org/1999/xlink" x="0px" y="0px"
	 viewBox="0 0 500 500" style="enable-background:new 0 0 500 500;" xml:space="preserve">
<g id="watermark_1_">
	<g>
		<g id="watermark" style="opacity:0.61;">
			<g>
				<g>
					<g>
						<g>
							<polygon style="fill:#FFFFFF;" points="213.765,461.172 208.204,474.017 205.268,474.017 199.726,461.172 202.938,461.172 
								206.846,470.347 210.81,461.172 							"/>
						</g>
						<g>
							<path style="fill:#FFFFFF;" d="M223.507,469.741h-7.469c0.275,1.23,1.321,1.982,2.826,1.982c1.046,0,1.798-0.312,2.477-0.954
								l1.523,1.651c-0.917,1.046-2.294,1.597-4.074,1.597c-3.413,0-5.634-2.147-5.634-5.083c0-2.954,2.257-5.083,5.267-5.083
								c2.899,0,5.138,1.945,5.138,5.12C223.562,469.191,223.526,469.503,223.507,469.741 M216.002,468.071h4.863
								c-0.202-1.248-1.138-2.055-2.422-2.055C217.139,466.016,216.204,466.805,216.002,468.071"/>
						</g>
						<g>
							<path style="fill:#FFFFFF;" d="M224.735,468.934c0-2.973,2.294-5.083,5.505-5.083c2.074,0,3.707,0.899,4.423,2.514
								l-2.22,1.193c-0.532-0.936-1.321-1.358-2.221-1.358c-1.45,0-2.587,1.009-2.587,2.734c0,1.725,1.138,2.734,2.587,2.734
								c0.899,0,1.688-0.404,2.221-1.358l2.22,1.211c-0.716,1.578-2.349,2.495-4.423,2.495
								C227.029,474.017,224.735,471.907,224.735,468.934"/>
						</g>
						<g>
							<path style="fill:#FFFFFF;" d="M242.828,473.393c-0.587,0.422-1.45,0.624-2.331,0.624c-2.33,0-3.688-1.193-3.688-3.542
								v-4.055h-1.523v-2.202h1.523v-2.404h2.863v2.404h2.459v2.202h-2.459v4.019c0,0.844,0.458,1.303,1.229,1.303
								c0.422,0,0.844-0.128,1.156-0.367L242.828,473.393z"/>
						</g>
					</g>
					<g>
						<path style="fill:#FFFFFF;" d="M262.474,463.997v2.643c-0.238-0.018-0.422-0.037-0.642-0.037
							c-1.578,0-2.624,0.862-2.624,2.753v4.661h-2.863v-9.873h2.734v1.303C259.776,464.493,260.951,463.997,262.474,463.997"/>
					</g>
					<g>
						<path style="fill:#FFFFFF;" d="M263.299,472.53l1.009-2.239c1.083,0.789,2.697,1.339,4.239,1.339
							c1.762,0,2.477-0.587,2.477-1.376c0-2.404-7.469-0.752-7.469-5.524c0-2.184,1.762-4,5.413-4c1.615,0,3.267,0.385,4.459,1.138
							l-0.918,2.257c-1.193-0.679-2.422-1.009-3.56-1.009c-1.761,0-2.44,0.66-2.44,1.468c0,2.367,7.468,0.734,7.468,5.45
							c0,2.147-1.78,3.982-5.45,3.982C266.492,474.017,264.437,473.411,263.299,472.53"/>
					</g>
					<g>
						<path style="fill:#FFFFFF;" d="M285.428,469.741h-7.469c0.275,1.23,1.321,1.982,2.826,1.982c1.046,0,1.798-0.312,2.477-0.954
							l1.523,1.651c-0.918,1.046-2.294,1.597-4.074,1.597c-3.413,0-5.634-2.147-5.634-5.083c0-2.954,2.257-5.083,5.267-5.083
							c2.9,0,5.138,1.945,5.138,5.12C285.484,469.191,285.447,469.503,285.428,469.741 M277.923,468.071h4.863
							c-0.202-1.248-1.138-2.055-2.422-2.055C279.061,466.016,278.125,466.805,277.923,468.071"/>
					</g>
					<g>
						<path style="fill:#FFFFFF;" d="M297.007,469.741h-7.469c0.275,1.23,1.321,1.982,2.826,1.982c1.046,0,1.798-0.312,2.477-0.954
							l1.523,1.651c-0.918,1.046-2.294,1.597-4.074,1.597c-3.413,0-5.634-2.147-5.634-5.083c0-2.954,2.257-5.083,5.267-5.083
							c2.899,0,5.138,1.945,5.138,5.12C297.062,469.191,297.025,469.503,297.007,469.741 M289.501,468.071h4.863
							c-0.202-1.248-1.138-2.055-2.422-2.055C290.639,466.016,289.703,466.805,289.501,468.071"/>
					</g>
					<g>
						<polygon style="fill:#FFFFFF;" points="303.208,470.145 301.831,471.503 301.831,474.017 298.969,474.017 298.969,460.401 
							301.831,460.401 301.831,468.108 306.016,464.144 309.429,464.144 305.318,468.328 309.796,474.017 306.327,474.017 						"/>
					</g>
					<g>
						<path style="fill:#FFFFFF;" d="M256.601,475.359L256.601,475.359l-2.86-2.86c-0.435,0.508-0.953,0.943-1.534,1.284
							c-0.092,0.069-0.186,0.136-0.283,0.199l3.027,3.027c0.456,0.456,1.195,0.456,1.65,0
							C257.057,476.554,257.057,475.815,256.601,475.359"/>
					</g>
					<g>
						<path style="fill:#FFFFFF;" d="M249.984,463.244c0.221-0.173,0.495-0.281,0.797-0.281c0.042,0,0.083,0.002,0.124,0.006
							c-0.214-0.156-0.478-0.249-0.764-0.249c-0.395,0-0.744,0.18-0.981,0.458c-0.051,0-0.1,0.006-0.151,0.008
							c0.039-0.077,0.064-0.162,0.064-0.255c0-0.234-0.143-0.434-0.346-0.519c0.087,0.126,0.138,0.279,0.138,0.445
							c0,0.122-0.031,0.237-0.081,0.341c-2.811,0.201-5.03,2.539-5.03,5.4c0,2.993,2.426,5.42,5.42,5.42
							c2.993,0,5.42-2.426,5.42-5.42C254.595,465.879,252.593,463.635,249.984,463.244 M247.983,464.656
							c0.435,0,0.844,0.112,1.199,0.309c0.374-0.245,0.82-0.387,1.299-0.387c0.711,0,1.348,0.312,1.784,0.806
							c-0.435-0.379-1.004-0.61-1.627-0.61c-0.449,0-0.87,0.12-1.234,0.329c-0.079,0.046-0.156,0.096-0.229,0.15
							c-0.065-0.048-0.133-0.093-0.204-0.134c-0.369-0.219-0.8-0.344-1.26-0.344c-0.3,0-0.588,0.054-0.854,0.152
							C247.196,464.754,247.578,464.656,247.983,464.656 M251.772,469.098c0.115,0.305,0.181,0.634,0.181,0.979
							c0,1.534-1.244,2.777-2.778,2.777c-1.534,0-2.777-1.243-2.777-2.777c0-0.345,0.066-0.674,0.181-0.979
							c-0.62-0.382-1.035-1.064-1.035-1.846c0-1.197,0.971-2.168,2.168-2.168c0.565,0,1.078,0.218,1.463,0.572
							c0.386-0.354,0.899-0.572,1.464-0.572c1.197,0,2.168,0.971,2.168,2.168C252.807,468.034,252.392,468.716,251.772,469.098"/>
					</g>
					<g>
						<path style="fill:#FFFFFF;" d="M251.666,467.061c0,0.497-0.404,0.901-0.901,0.901c-0.497,0-0.901-0.404-0.901-0.901
							s0.404-0.901,0.901-0.901c0.101,0,0.197,0.017,0.287,0.047c-0.03,0.062-0.045,0.132-0.045,0.204
							c0,0.273,0.221,0.494,0.494,0.494c0.05,0,0.099-0.008,0.146-0.022C251.66,466.941,251.666,467,251.666,467.061"/>
					</g>
					<g>
						<path style="fill:#FFFFFF;" d="M248.255,467.061c0,0.376-0.305,0.681-0.681,0.681c-0.376,0-0.681-0.305-0.681-0.681
							s0.305-0.681,0.681-0.681c0.076,0,0.149,0.013,0.217,0.035c-0.023,0.047-0.034,0.1-0.034,0.155
							c0,0.206,0.167,0.374,0.374,0.374c0.038,0,0.075-0.006,0.11-0.017C248.25,466.97,248.255,467.015,248.255,467.061"/>
					</g>
					<g>
						<g>
							<g>
								<rect x="242.908" y="467.83" style="fill:#FFFFFF;" width="0.616" height="0.616"/>
							</g>
							<g>
								<rect x="254.827" y="467.83" style="fill:#FFFFFF;" width="0.616" height="0.616"/>
							</g>
							<g>
								<path style="fill:#FFFFFF;" d="M255.205,468.082h-0.14c0-3.248-2.642-5.89-5.89-5.89c-3.248,0-5.89,2.642-5.89,5.89h-0.14
									c0-1.611,0.627-3.125,1.766-4.264c1.139-1.139,2.653-1.766,4.264-1.766c1.611,0,3.125,0.627,4.264,1.766
									C254.578,464.957,255.205,466.471,255.205,468.082"/>
							</g>
						</g>
						<g>
							<rect x="248.868" y="461.814" style="fill:#FFFFFF;" width="0.616" height="0.616"/>
						</g>
						<g>
							<rect x="244.95" y="462.052" style="fill:#FFFFFF;" width="8.45" height="0.14"/>
						</g>
						<g>
							<path style="fill:#FFFFFF;" d="M245.174,462.15c0,0.108-0.088,0.196-0.196,0.196c-0.108,0-0.196-0.088-0.196-0.196
								c0-0.108,0.088-0.196,0.196-0.196C245.086,461.954,245.174,462.042,245.174,462.15"/>
						</g>
						<g>
							<path style="fill:#FFFFFF;" d="M253.596,462.15c0,0.108-0.088,0.196-0.196,0.196c-0.108,0-0.196-0.088-0.196-0.196
								c0-0.108,0.088-0.196,0.196-0.196C253.509,461.954,253.596,462.042,253.596,462.15"/>
						</g>
					</g>
				</g>
				<g>
					<path style="fill:#FFFFFF;" d="M314.356,473.409c0,1.559-2.364,1.559-2.364,0C311.993,471.851,314.356,471.851,314.356,473.409
						z"/>
				</g>
				<g>
					<g>
						<g>
							<path style="fill:#FFFFFF;" d="M161.739,466.549l1.772,6.088l1.855-6.088h2.215l-2.823,8.14h-2.33l-0.837-2.396l-0.722-2.708
								l-0.722,2.708l-0.837,2.396h-2.33l-2.839-8.14h2.231l1.855,6.088l1.756-6.088H161.739z"/>
						</g>
						<g>
							<path style="fill:#FFFFFF;" d="M176.713,466.549l1.772,6.088l1.855-6.088h2.215l-2.823,8.14h-2.33l-0.837-2.396l-0.722-2.708
								l-0.722,2.708l-0.837,2.396h-2.33l-2.839-8.14h2.231l1.855,6.088l1.756-6.088H176.713z"/>
						</g>
						<g>
							<path style="fill:#FFFFFF;" d="M191.687,466.549l1.772,6.088l1.855-6.088h2.215l-2.823,8.14h-2.33l-0.837-2.396l-0.722-2.708
								l-0.722,2.708l-0.837,2.396h-2.33l-2.839-8.14h2.231l1.855,6.088l1.756-6.088H191.687z"/>
						</g>
					</g>
					<g>
						<path style="fill:#FFFFFF;" d="M200.908,473.52c0,1.559-2.364,1.559-2.364,0C198.545,471.962,200.908,471.962,200.908,473.52z
							"/>
					</g>
					<g>
						<path style="fill:#FFFFFF;" d="M322.71,473.409c-0.935,0.919-1.919,1.28-3.117,1.28c-2.346,0-4.3-1.411-4.3-4.282
							s1.953-4.284,4.3-4.284c1.149,0,2.035,0.329,2.921,1.199l-1.264,1.329c-0.476-0.428-1.066-0.64-1.623-0.64
							c-1.346,0-2.33,0.985-2.33,2.396c0,1.542,1.05,2.362,2.297,2.362c0.64,0,1.28-0.18,1.772-0.672L322.71,473.409z"/>
					</g>
					<g>
						<path style="fill:#FFFFFF;" d="M331.805,470.472c0,2.33-1.591,4.217-4.217,4.217c-2.626,0-4.201-1.887-4.201-4.217
							c0-2.314,1.609-4.217,4.185-4.217C330.149,466.255,331.805,468.158,331.805,470.472z M325.389,470.472
							c0,1.231,0.739,2.38,2.199,2.38c1.46,0,2.199-1.149,2.199-2.38c0-1.215-0.854-2.396-2.199-2.396
							C326.144,468.077,325.389,469.258,325.389,470.472z"/>
					</g>
					<g>
						<path style="fill:#FFFFFF;" d="M338.572,474.689v-4.332c0-1.068-0.559-2.035-1.658-2.035c-1.082,0-1.722,0.967-1.722,2.035
							v4.332h-2.003v-8.107h1.855l0.148,0.985c0.426-0.82,1.362-1.116,2.133-1.116c0.969,0,1.937,0.394,2.396,1.51
							c0.723-1.149,1.658-1.478,2.708-1.478c2.297,0,3.43,1.412,3.43,3.84v4.365h-2.003v-4.365c0-1.066-0.442-1.97-1.526-1.97
							c-1.082,0-1.756,0.935-1.756,2.003v4.332H338.572z"/>
					</g>
				</g>
			</g>
		</g>
		<g style="opacity:0.61;">
			<g>
				<g>
					<path style="fill:#FFFFFF;" d="M345.988,431.299c-0.006-1.224-0.959-2.121-2.189-2.14c-0.924-0.014-0.832,0.12-0.834-0.867
						c-0.003-1.097-0.007-2.194,0.003-3.292c0.003-0.379-0.112-0.691-0.362-0.976c-2.342-2.668-4.678-5.342-7.019-8.011
						c-0.12-0.137-0.275-0.244-0.414-0.366c-6.214,0-12.427,0-18.641,0c-0.794,0.293-1.14,0.868-1.138,1.709
						c0.01,3.748,0.004,7.496,0.004,11.243c0,0.556-0.003,0.589-0.55,0.551c-1.497-0.102-2.516,0.986-2.497,2.492
						c0.044,3.476,0.013,6.953,0.014,10.429c0.001,1.58,0.867,2.443,2.45,2.449c0.582,0.002,0.582,0.002,0.582,0.6
						c0,2.219-0.001,4.438,0.001,6.657c0.001,1.192,0.58,1.771,1.768,1.771c8.013,0.001,16.027,0.001,24.04,0
						c1.168,0,1.755-0.583,1.757-1.745c0.002-2.256,0-4.512,0.001-6.768c0-0.512,0.002-0.511,0.52-0.515
						c0.271-0.002,0.541,0.008,0.809-0.058c0.996-0.246,1.69-1.044,1.694-2.069C346.003,438.696,346.005,434.997,345.988,431.299z
						 M317.537,417.162c5.337,0,10.674,0,16.01,0c0.548,0,0.554,0.007,0.554,0.561c0.001,2.243-0.001,4.486,0.001,6.73
						c0.001,0.811,0.249,1.059,1.06,1.059c1.91,0.001,3.821,0,5.731,0.001c0.458,0,0.479,0.021,0.481,0.483
						c0.003,0.887,0.002,1.775,0,2.662c-0.001,0.477-0.024,0.498-0.504,0.499c-3.895,0.001-7.79,0-11.684,0
						c-3.882,0-7.765,0-11.647,0c-0.55,0-0.552-0.001-0.552-0.561c-0.001-3.624-0.001-7.247,0-10.871
						C316.987,417.166,316.991,417.162,317.537,417.162z M340.822,451.579c-3.883,0.001-7.766,0-11.65,0c-3.871,0-7.742,0-11.613,0
						c-0.572,0-0.574-0.002-0.574-0.579c-0.001-1.997-0.001-3.994,0.001-5.991c0-0.464,0.023-0.486,0.478-0.487
						c7.803-0.001,15.607-0.001,23.41,0c0.478,0,0.499,0.02,0.499,0.503c0.002,1.997,0.001,3.994,0,5.991
						C341.375,451.574,341.37,451.579,340.822,451.579z"/>
				</g>
				<g>
					<g>
						<rect x="327.418" y="417.053" style="fill:#FFFFFF;" width="1.757" height="1.054"/>
					</g>
					<g>
						<rect x="325.662" y="418.107" style="fill:#FFFFFF;" width="1.757" height="1.054"/>
					</g>
					<g>
						<rect x="327.418" y="419.161" style="fill:#FFFFFF;" width="1.757" height="1.054"/>
					</g>
					<g>
						<rect x="325.662" y="420.215" style="fill:#FFFFFF;" width="1.757" height="1.054"/>
					</g>
					<g>
						<rect x="327.418" y="421.269" style="fill:#FFFFFF;" width="1.757" height="1.054"/>
					</g>
					<g>
						<rect x="325.662" y="422.323" style="fill:#FFFFFF;" width="1.757" height="1.054"/>
					</g>
					<g>
						<rect x="327.418" y="423.378" style="fill:#FFFFFF;" width="1.757" height="1.054"/>
					</g>
					<g>
						<rect x="325.662" y="424.432" style="fill:#FFFFFF;" width="1.757" height="1.054"/>
					</g>
					<g>
						<rect x="327.418" y="425.486" style="fill:#FFFFFF;" width="1.757" height="1.054"/>
					</g>
					<g>
						<rect x="325.662" y="426.54" style="fill:#FFFFFF;" width="1.757" height="1.054"/>
					</g>
					<g>
						<rect x="327.418" y="427.594" style="fill:#FFFFFF;" width="1.757" height="1.054"/>
					</g>
					<g>
						<rect x="325.662" y="428.648" style="fill:#FFFFFF;" width="1.757" height="1.054"/>
					</g>
				</g>
			</g>
			<g>
				<path style="fill:#FFFFFF;" d="M187.637,431.299c-0.006-1.224-0.959-2.121-2.189-2.14c-0.924-0.014-0.832,0.12-0.834-0.867
					c-0.003-1.097-0.007-2.194,0.003-3.292c0.003-0.379-0.112-0.691-0.362-0.976c-2.342-2.668-4.678-5.342-7.019-8.011
					c-0.12-0.137-0.275-0.244-0.414-0.366c-6.214,0-12.427,0-18.641,0c-0.794,0.293-1.14,0.868-1.138,1.709
					c0.01,3.748,0.004,7.496,0.004,11.243c0,0.556-0.003,0.589-0.55,0.551c-1.497-0.102-2.516,0.986-2.497,2.492
					c0.044,3.476,0.013,6.953,0.014,10.429c0.001,1.58,0.867,2.443,2.45,2.449c0.582,0.002,0.582,0.002,0.582,0.6
					c0,2.219-0.001,4.438,0.001,6.657c0.001,1.192,0.58,1.771,1.768,1.771c8.013,0.001,16.027,0.001,24.04,0
					c1.168,0,1.755-0.583,1.757-1.745c0.002-2.256,0-4.512,0.001-6.768c0-0.512,0.002-0.511,0.52-0.515
					c0.271-0.002,0.541,0.008,0.809-0.058c0.996-0.246,1.69-1.044,1.694-2.069C187.652,438.696,187.655,434.997,187.637,431.299z
					 M159.187,417.162c5.337,0,10.674,0,16.01,0c0.548,0,0.554,0.007,0.554,0.561c0.001,2.243-0.001,4.486,0.001,6.73
					c0.001,0.811,0.249,1.059,1.06,1.059c1.91,0.001,3.821,0,5.731,0.001c0.458,0,0.479,0.021,0.481,0.483
					c0.003,0.887,0.002,1.775,0,2.662c-0.001,0.477-0.024,0.498-0.504,0.499c-3.895,0.001-7.79,0-11.684,0
					c-3.882,0-7.765,0-11.647,0c-0.55,0-0.552-0.001-0.552-0.561c-0.001-3.624-0.001-7.247,0-10.871
					C158.636,417.166,158.64,417.162,159.187,417.162z M182.472,451.579c-3.883,0.001-7.766,0-11.65,0c-3.871,0-7.742,0-11.613,0
					c-0.572,0-0.574-0.002-0.574-0.579c-0.001-1.997-0.001-3.994,0.001-5.991c0-0.464,0.023-0.486,0.478-0.487
					c7.803-0.001,15.607-0.001,23.41,0c0.478,0,0.499,0.02,0.499,0.503c0.002,1.997,0.001,3.994,0,5.991
					C183.024,451.574,183.019,451.579,182.472,451.579z"/>
			</g>
			<g>
				<path style="fill:#FFFFFF;" d="M159.779,440.669v-7.897h2.779c0.375,0,0.726,0.061,1.053,0.182
					c0.327,0.121,0.612,0.292,0.855,0.513c0.242,0.221,0.434,0.483,0.573,0.789c0.14,0.305,0.21,0.642,0.21,1.009
					c0,0.375-0.07,0.715-0.21,1.02c-0.14,0.305-0.331,0.568-0.573,0.789c-0.243,0.221-0.528,0.392-0.855,0.513
					c-0.327,0.121-0.678,0.182-1.053,0.182h-1.29v2.901H159.779z M162.58,436.356c0.39,0,0.684-0.111,0.882-0.331
					c0.199-0.22,0.298-0.474,0.298-0.761c0-0.14-0.024-0.276-0.072-0.408c-0.048-0.132-0.121-0.248-0.221-0.347
					c-0.099-0.099-0.223-0.178-0.37-0.237c-0.147-0.059-0.32-0.089-0.518-0.089h-1.312v2.173H162.58z"/>
				<path style="fill:#FFFFFF;" d="M166.308,432.771h1.731l3.177,5.294h0.088l-0.088-1.522v-3.772h1.478v7.897h-1.566l-3.353-5.592
					h-0.088l0.088,1.522v4.07h-1.467V432.771z"/>
				<path style="fill:#FFFFFF;" d="M177.922,436.334h3.872c0.022,0.089,0.04,0.195,0.055,0.32c0.014,0.125,0.022,0.25,0.022,0.375
					c0,0.507-0.077,0.985-0.231,1.434c-0.154,0.449-0.397,0.849-0.728,1.202c-0.353,0.375-0.776,0.666-1.268,0.871
					c-0.493,0.206-1.055,0.309-1.688,0.309c-0.574,0-1.114-0.103-1.622-0.309c-0.507-0.206-0.948-0.492-1.323-0.86
					c-0.375-0.367-0.673-0.803-0.894-1.307c-0.221-0.504-0.331-1.053-0.331-1.649c0-0.595,0.11-1.145,0.331-1.649
					c0.221-0.504,0.518-0.939,0.894-1.307c0.375-0.367,0.816-0.654,1.323-0.86c0.507-0.206,1.048-0.309,1.622-0.309
					c0.64,0,1.211,0.11,1.715,0.331c0.504,0.221,0.935,0.526,1.296,0.915l-1.025,1.004c-0.258-0.272-0.544-0.48-0.861-0.623
					c-0.316-0.143-0.695-0.215-1.136-0.215c-0.361,0-0.703,0.065-1.026,0.193c-0.324,0.129-0.607,0.311-0.85,0.546
					c-0.242,0.235-0.436,0.52-0.579,0.855c-0.143,0.335-0.215,0.708-0.215,1.119c0,0.412,0.072,0.785,0.215,1.12
					c0.143,0.335,0.338,0.62,0.584,0.855c0.246,0.235,0.531,0.418,0.855,0.546c0.323,0.129,0.669,0.193,1.037,0.193
					c0.419,0,0.773-0.061,1.064-0.182c0.29-0.121,0.538-0.278,0.744-0.469c0.148-0.132,0.275-0.3,0.381-0.502
					c0.106-0.202,0.189-0.428,0.248-0.678h-2.482V436.334z"/>
			</g>
			<g>
				<path style="fill:#FFFFFF;" d="M224.019,431.299c-0.006-1.224-0.959-2.121-2.189-2.14c-0.924-0.014-0.832,0.12-0.834-0.867
					c-0.003-1.097-0.007-2.194,0.003-3.292c0.003-0.379-0.112-0.691-0.362-0.976c-2.342-2.668-4.678-5.342-7.019-8.011
					c-0.12-0.137-0.275-0.244-0.414-0.366c-6.214,0-12.427,0-18.641,0c-0.794,0.293-1.14,0.868-1.138,1.709
					c0.01,3.748,0.004,7.496,0.004,11.243c0,0.556-0.003,0.589-0.55,0.551c-1.497-0.102-2.516,0.986-2.497,2.492
					c0.044,3.476,0.013,6.953,0.014,10.429c0.001,1.58,0.867,2.443,2.45,2.449c0.582,0.002,0.582,0.002,0.582,0.6
					c0,2.219-0.001,4.438,0.001,6.657c0.001,1.192,0.58,1.771,1.768,1.771c8.013,0.001,16.027,0.001,24.04,0
					c1.168,0,1.755-0.583,1.757-1.745c0.002-2.256,0-4.512,0.001-6.768c0-0.512,0.002-0.511,0.52-0.515
					c0.271-0.002,0.541,0.008,0.809-0.058c0.997-0.246,1.69-1.044,1.694-2.069C224.034,438.696,224.036,434.997,224.019,431.299z
					 M195.568,417.162c5.337,0,10.674,0,16.01,0c0.548,0,0.554,0.007,0.554,0.561c0.001,2.243-0.001,4.486,0.001,6.73
					c0.001,0.811,0.249,1.059,1.06,1.059c1.91,0.001,3.821,0,5.731,0.001c0.458,0,0.479,0.021,0.481,0.483
					c0.003,0.887,0.002,1.775,0,2.662c-0.001,0.477-0.024,0.498-0.504,0.499c-3.895,0.001-7.79,0-11.684,0
					c-3.882,0-7.765,0-11.647,0c-0.55,0-0.552-0.001-0.552-0.561c-0.001-3.624-0.001-7.247,0-10.871
					C195.018,417.166,195.022,417.162,195.568,417.162z M218.854,451.579c-3.883,0.001-7.766,0-11.65,0c-3.871,0-7.742,0-11.613,0
					c-0.572,0-0.574-0.002-0.574-0.579c-0.001-1.997-0.001-3.994,0.001-5.991c0-0.464,0.023-0.486,0.478-0.487
					c7.803-0.001,15.607-0.001,23.41,0c0.478,0,0.499,0.02,0.499,0.503c0.002,1.997,0.001,3.994,0,5.991
					C219.406,451.574,219.401,451.579,218.854,451.579z"/>
			</g>
			<g>
				<path style="fill:#FFFFFF;" d="M205.111,432.771h1.699l2.967,7.897h-1.644l-0.651-1.886h-3.044l-0.651,1.886h-1.643
					L205.111,432.771z M206.997,437.415l-0.706-1.974l-0.287-0.96h-0.088l-0.287,0.96l-0.706,1.974H206.997z"/>
				<path style="fill:#FFFFFF;" d="M211.331,434.536c-0.125,0-0.245-0.024-0.359-0.072c-0.114-0.048-0.213-0.114-0.298-0.199
					c-0.084-0.084-0.151-0.182-0.198-0.292c-0.048-0.11-0.072-0.232-0.072-0.364s0.024-0.254,0.072-0.364
					c0.048-0.11,0.114-0.208,0.198-0.292c0.084-0.084,0.184-0.151,0.298-0.198c0.114-0.048,0.233-0.072,0.359-0.072
					c0.257,0,0.478,0.09,0.662,0.27c0.184,0.181,0.276,0.399,0.276,0.656s-0.092,0.476-0.276,0.656
					C211.809,434.446,211.589,434.536,211.331,434.536z M210.615,440.669v-5.404h1.445v5.404H210.615z"/>
			</g>
			<g>
				<path style="fill:#FFFFFF;" d="M261.044,431.299c-0.006-1.224-0.959-2.121-2.189-2.14c-0.924-0.014-0.832,0.12-0.834-0.867
					c-0.003-1.097-0.007-2.194,0.003-3.292c0.003-0.379-0.112-0.691-0.362-0.976c-2.342-2.668-4.678-5.342-7.019-8.011
					c-0.12-0.137-0.275-0.244-0.414-0.366c-6.214,0-12.427,0-18.641,0c-0.794,0.293-1.14,0.868-1.138,1.709
					c0.01,3.748,0.004,7.496,0.004,11.243c0,0.556-0.003,0.589-0.55,0.551c-1.497-0.102-2.516,0.986-2.497,2.492
					c0.044,3.476,0.013,6.953,0.014,10.429c0.001,1.58,0.867,2.443,2.45,2.449c0.582,0.002,0.582,0.002,0.582,0.6
					c0,2.219-0.001,4.438,0.001,6.657c0.001,1.192,0.58,1.771,1.768,1.771c8.013,0.001,16.027,0.001,24.04,0
					c1.168,0,1.755-0.583,1.757-1.745c0.002-2.256,0-4.512,0.001-6.768c0-0.512,0.002-0.511,0.52-0.515
					c0.271-0.002,0.541,0.008,0.809-0.058c0.996-0.246,1.69-1.044,1.694-2.069C261.059,438.696,261.061,434.997,261.044,431.299z
					 M232.593,417.162c5.337,0,10.674,0,16.01,0c0.548,0,0.554,0.007,0.554,0.561c0.001,2.243-0.001,4.486,0.001,6.73
					c0.001,0.811,0.249,1.059,1.06,1.059c1.91,0.001,3.821,0,5.731,0.001c0.458,0,0.479,0.021,0.481,0.483
					c0.003,0.887,0.002,1.775,0,2.662c-0.001,0.477-0.024,0.498-0.504,0.499c-3.895,0.001-7.79,0-11.684,0
					c-3.882,0-7.765,0-11.647,0c-0.55,0-0.552-0.001-0.552-0.561c-0.001-3.624-0.001-7.247,0-10.871
					C232.042,417.166,232.047,417.162,232.593,417.162z M255.878,451.579c-3.883,0.001-7.766,0-11.65,0c-3.871,0-7.742,0-11.613,0
					c-0.572,0-0.574-0.002-0.574-0.579c-0.001-1.997-0.001-3.994,0.001-5.991c0-0.464,0.023-0.486,0.478-0.487
					c7.803-0.001,15.607-0.001,23.41,0c0.478,0,0.499,0.02,0.499,0.503c0.002,1.997,0.001,3.994,0,5.991
					C256.431,451.574,256.426,451.579,255.878,451.579z"/>
			</g>
			<g>
				<path style="fill:#FFFFFF;" d="M236.361,440.845c-0.338,0-0.662-0.048-0.971-0.143c-0.309-0.095-0.592-0.239-0.849-0.43
					c-0.257-0.191-0.481-0.425-0.673-0.7c-0.191-0.276-0.342-0.597-0.452-0.965l1.401-0.551c0.103,0.397,0.283,0.726,0.54,0.987
					c0.257,0.261,0.596,0.392,1.015,0.392c0.154,0,0.303-0.02,0.447-0.061c0.143-0.04,0.272-0.099,0.386-0.176
					s0.204-0.175,0.27-0.292c0.066-0.118,0.099-0.254,0.099-0.408c0-0.147-0.026-0.279-0.077-0.397
					c-0.051-0.117-0.138-0.227-0.259-0.331c-0.121-0.103-0.28-0.202-0.475-0.298c-0.195-0.095-0.435-0.195-0.722-0.298l-0.485-0.176
					c-0.213-0.073-0.429-0.173-0.645-0.298c-0.217-0.125-0.413-0.276-0.59-0.452c-0.177-0.176-0.322-0.384-0.436-0.623
					c-0.114-0.239-0.171-0.509-0.171-0.81c0-0.309,0.06-0.597,0.182-0.866c0.121-0.268,0.294-0.503,0.518-0.706
					c0.224-0.202,0.492-0.36,0.805-0.474s0.66-0.171,1.042-0.171c0.397,0,0.74,0.053,1.031,0.16
					c0.291,0.107,0.537,0.243,0.739,0.408c0.202,0.165,0.366,0.348,0.491,0.546c0.125,0.199,0.217,0.386,0.276,0.563l-1.312,0.551
					c-0.074-0.221-0.208-0.419-0.402-0.596c-0.195-0.176-0.462-0.265-0.8-0.265c-0.324,0-0.592,0.075-0.805,0.226
					c-0.213,0.151-0.32,0.348-0.32,0.59c0,0.235,0.103,0.436,0.309,0.601c0.206,0.165,0.533,0.325,0.982,0.48l0.497,0.165
					c0.316,0.111,0.605,0.237,0.866,0.381c0.261,0.143,0.485,0.314,0.673,0.513c0.187,0.199,0.331,0.425,0.43,0.678
					c0.1,0.254,0.149,0.546,0.149,0.877c0,0.412-0.083,0.767-0.248,1.064c-0.165,0.298-0.377,0.542-0.634,0.734
					c-0.258,0.191-0.548,0.335-0.872,0.43C236.986,440.797,236.67,440.845,236.361,440.845z"/>
				<path style="fill:#FFFFFF;" d="M239.516,432.771h1.61l1.633,4.754l0.287,1.015h0.088l0.309-1.015l1.699-4.754h1.61l-2.879,7.897
					h-1.566L239.516,432.771z"/>
				<path style="fill:#FFFFFF;" d="M251.097,436.334h3.871c0.022,0.089,0.04,0.195,0.055,0.32c0.015,0.125,0.023,0.25,0.023,0.375
					c0,0.507-0.078,0.985-0.232,1.434c-0.154,0.449-0.397,0.849-0.728,1.202c-0.353,0.375-0.775,0.666-1.268,0.871
					c-0.493,0.206-1.055,0.309-1.688,0.309c-0.574,0-1.114-0.103-1.621-0.309c-0.507-0.206-0.949-0.492-1.324-0.86
					c-0.375-0.367-0.673-0.803-0.894-1.307c-0.22-0.504-0.331-1.053-0.331-1.649c0-0.595,0.11-1.145,0.331-1.649
					c0.221-0.504,0.518-0.939,0.894-1.307c0.375-0.367,0.816-0.654,1.324-0.86c0.507-0.206,1.047-0.309,1.621-0.309
					c0.64,0,1.211,0.11,1.715,0.331c0.504,0.221,0.936,0.526,1.296,0.915l-1.026,1.004c-0.257-0.272-0.544-0.48-0.861-0.623
					c-0.316-0.143-0.694-0.215-1.136-0.215c-0.36,0-0.702,0.065-1.026,0.193c-0.323,0.129-0.607,0.311-0.849,0.546
					c-0.243,0.235-0.436,0.52-0.579,0.855c-0.143,0.335-0.215,0.708-0.215,1.119c0,0.412,0.072,0.785,0.215,1.12
					c0.143,0.335,0.338,0.62,0.585,0.855c0.246,0.235,0.531,0.418,0.854,0.546c0.324,0.129,0.669,0.193,1.037,0.193
					c0.419,0,0.774-0.061,1.064-0.182c0.29-0.121,0.539-0.278,0.745-0.469c0.147-0.132,0.274-0.3,0.38-0.502
					c0.107-0.202,0.189-0.428,0.248-0.678h-2.482V436.334z"/>
			</g>
			<g>
				<path style="fill:#FFFFFF;" d="M297.3,431.299c-0.006-1.224-0.959-2.121-2.189-2.14c-0.924-0.014-0.832,0.12-0.834-0.867
					c-0.003-1.097-0.007-2.194,0.003-3.292c0.003-0.379-0.112-0.691-0.362-0.976c-2.342-2.668-4.678-5.342-7.019-8.011
					c-0.12-0.137-0.275-0.244-0.414-0.366c-6.214,0-12.427,0-18.641,0c-0.794,0.293-1.14,0.868-1.138,1.709
					c0.01,3.748,0.004,7.496,0.004,11.243c0,0.556-0.003,0.589-0.55,0.551c-1.497-0.102-2.516,0.986-2.497,2.492
					c0.044,3.476,0.013,6.953,0.014,10.429c0.001,1.58,0.867,2.443,2.45,2.449c0.582,0.002,0.582,0.002,0.582,0.6
					c0,2.219-0.001,4.438,0.001,6.657c0.001,1.192,0.58,1.771,1.768,1.771c8.013,0.001,16.027,0.001,24.04,0
					c1.168,0,1.755-0.583,1.757-1.745c0.002-2.256,0-4.512,0.001-6.768c0-0.512,0.002-0.511,0.52-0.515
					c0.271-0.002,0.541,0.008,0.809-0.058c0.996-0.246,1.69-1.044,1.694-2.069C297.315,438.696,297.318,434.997,297.3,431.299z
					 M268.85,417.162c5.337,0,10.674,0,16.01,0c0.548,0,0.554,0.007,0.554,0.561c0.001,2.243-0.001,4.486,0.001,6.73
					c0.001,0.811,0.249,1.059,1.06,1.059c1.91,0.001,3.821,0,5.731,0.001c0.458,0,0.479,0.021,0.481,0.483
					c0.003,0.887,0.002,1.775,0,2.662c-0.001,0.477-0.024,0.498-0.504,0.499c-3.895,0.001-7.79,0-11.684,0
					c-3.882,0-7.765,0-11.647,0c-0.55,0-0.552-0.001-0.552-0.561c-0.001-3.624-0.001-7.247,0-10.871
					C268.299,417.166,268.303,417.162,268.85,417.162z M292.135,451.579c-3.883,0.001-7.766,0-11.65,0c-3.871,0-7.742,0-11.613,0
					c-0.572,0-0.574-0.002-0.574-0.579c-0.001-1.997-0.001-3.994,0.001-5.991c0-0.464,0.023-0.486,0.478-0.487
					c7.803-0.001,15.607-0.001,23.41,0c0.478,0,0.499,0.02,0.499,0.503c0.001,1.997,0.001,3.994,0,5.991
					C292.687,451.574,292.682,451.579,292.135,451.579z"/>
			</g>
			<g>
				<path style="fill:#FFFFFF;" d="M272.966,434.183v1.831h3.165v1.412h-3.165v1.831h3.518v1.412h-5.007v-7.897h5.007v1.412H272.966
					z"/>
				<path style="fill:#FFFFFF;" d="M277.852,440.669v-7.897h2.779c0.375,0,0.726,0.061,1.053,0.182
					c0.327,0.121,0.612,0.292,0.855,0.513c0.243,0.221,0.434,0.483,0.574,0.789c0.14,0.305,0.209,0.642,0.209,1.009
					c0,0.375-0.07,0.715-0.209,1.02c-0.14,0.305-0.331,0.568-0.574,0.789c-0.243,0.221-0.528,0.392-0.855,0.513
					c-0.327,0.121-0.678,0.182-1.053,0.182h-1.29v2.901H277.852z M280.653,436.356c0.389,0,0.684-0.111,0.882-0.331
					c0.199-0.22,0.298-0.474,0.298-0.761c0-0.14-0.024-0.276-0.072-0.408c-0.048-0.132-0.121-0.248-0.221-0.347
					c-0.099-0.099-0.222-0.178-0.37-0.237c-0.147-0.059-0.32-0.089-0.518-0.089h-1.312v2.173H280.653z"/>
				<path style="fill:#FFFFFF;" d="M286.797,440.845c-0.338,0-0.662-0.048-0.971-0.143c-0.309-0.095-0.592-0.239-0.849-0.43
					c-0.257-0.191-0.482-0.425-0.673-0.7c-0.191-0.276-0.342-0.597-0.452-0.965l1.401-0.551c0.103,0.397,0.283,0.726,0.541,0.987
					c0.257,0.261,0.595,0.392,1.015,0.392c0.154,0,0.303-0.02,0.447-0.061c0.143-0.04,0.272-0.099,0.386-0.176
					c0.114-0.077,0.204-0.175,0.27-0.292c0.066-0.118,0.1-0.254,0.1-0.408c0-0.147-0.026-0.279-0.077-0.397
					c-0.051-0.117-0.138-0.227-0.259-0.331c-0.121-0.103-0.279-0.202-0.474-0.298c-0.195-0.095-0.436-0.195-0.723-0.298
					l-0.485-0.176c-0.213-0.073-0.428-0.173-0.645-0.298c-0.217-0.125-0.414-0.276-0.59-0.452c-0.176-0.176-0.322-0.384-0.436-0.623
					c-0.114-0.239-0.171-0.509-0.171-0.81c0-0.309,0.061-0.597,0.182-0.866c0.121-0.268,0.294-0.503,0.518-0.706
					c0.224-0.202,0.493-0.36,0.805-0.474c0.312-0.114,0.66-0.171,1.042-0.171c0.397,0,0.741,0.053,1.031,0.16
					c0.29,0.107,0.537,0.243,0.739,0.408c0.202,0.165,0.365,0.348,0.491,0.546c0.125,0.199,0.217,0.386,0.276,0.563l-1.312,0.551
					c-0.074-0.221-0.208-0.419-0.403-0.596c-0.195-0.176-0.462-0.265-0.799-0.265c-0.324,0-0.592,0.075-0.805,0.226
					c-0.213,0.151-0.32,0.348-0.32,0.59c0,0.235,0.103,0.436,0.309,0.601c0.206,0.165,0.533,0.325,0.982,0.48l0.496,0.165
					c0.316,0.111,0.605,0.237,0.866,0.381c0.261,0.143,0.485,0.314,0.673,0.513c0.187,0.199,0.331,0.425,0.43,0.678
					c0.099,0.254,0.149,0.546,0.149,0.877c0,0.412-0.083,0.767-0.248,1.064c-0.165,0.298-0.377,0.542-0.634,0.734
					c-0.258,0.191-0.548,0.335-0.872,0.43C287.422,440.797,287.105,440.845,286.797,440.845z"/>
			</g>
			<g>
				<path style="fill:#FFFFFF;" d="M321.394,439.168l4.004-4.985h-3.827v-1.412h5.559v1.5l-3.96,4.985h4.004v1.412h-5.779V439.168z"
					/>
				<path style="fill:#FFFFFF;" d="M328.409,432.771h1.489v7.897h-1.489V432.771z"/>
				<path style="fill:#FFFFFF;" d="M331.486,440.669v-7.897h2.779c0.375,0,0.726,0.061,1.053,0.182
					c0.327,0.121,0.612,0.292,0.855,0.513s0.434,0.483,0.574,0.789c0.14,0.305,0.209,0.642,0.209,1.009
					c0,0.375-0.07,0.715-0.209,1.02c-0.14,0.305-0.331,0.568-0.574,0.789c-0.243,0.221-0.528,0.392-0.855,0.513
					c-0.327,0.121-0.678,0.182-1.053,0.182h-1.29v2.901H331.486z M334.288,436.356c0.389,0,0.684-0.111,0.882-0.331
					c0.199-0.22,0.298-0.474,0.298-0.761c0-0.14-0.024-0.276-0.072-0.408c-0.048-0.132-0.121-0.248-0.221-0.347
					c-0.099-0.099-0.222-0.178-0.37-0.237c-0.147-0.059-0.32-0.089-0.518-0.089h-1.312v2.173H334.288z"/>
			</g>
		</g>
		<g style="opacity:0.61;">
			<path style="fill:#FFFFFF;" d="M300.133,433.27h9.067v2.242h-9.067V433.27z M300.133,437.136h9.067v2.243h-9.067V437.136z"/>
		</g>
	</g>
	<g style="opacity:0.61;">
		<path style="fill:#FFFFFF;" d="M156.756,478.878h1.607c1.263,0,2.114,0.812,2.114,1.974c0,1.161-0.851,1.973-2.114,1.973h-1.607
			V478.878z M158.34,482.464c1.049,0,1.725-0.665,1.725-1.612c0-0.947-0.677-1.613-1.725-1.613h-1.167v3.225H158.34z"/>
		<path style="fill:#FFFFFF;" d="M165.139,480.851c0-1.15,0.879-2.007,2.075-2.007c1.184,0,2.069,0.851,2.069,2.007
			c0,1.156-0.885,2.007-2.069,2.007C166.019,482.858,165.139,482.002,165.139,480.851z M168.866,480.851
			c0-0.942-0.705-1.635-1.652-1.635c-0.953,0-1.663,0.693-1.663,1.635c0,0.941,0.71,1.635,1.663,1.635
			C168.162,482.486,168.866,481.793,168.866,480.851z"/>
		<path style="fill:#FFFFFF;" d="M179.596,478.878l-1.331,3.947h-0.44l-1.156-3.366l-1.161,3.366h-0.434l-1.331-3.947h0.429
			l1.139,3.394l1.178-3.394h0.389l1.161,3.411l1.156-3.411H179.596z"/>
		<path style="fill:#FFFFFF;" d="M187.731,478.878v3.947h-0.344l-2.537-3.202v3.202h-0.417v-3.947h0.344l2.543,3.203v-3.203H187.731
			z"/>
		<path style="fill:#FFFFFF;" d="M193.093,478.878h0.417v3.586h2.21v0.361h-2.627V478.878z"/>
		<path style="fill:#FFFFFF;" d="M200.061,480.851c0-1.15,0.879-2.007,2.075-2.007c1.184,0,2.069,0.851,2.069,2.007
			c0,1.156-0.885,2.007-2.069,2.007C200.941,482.858,200.061,482.002,200.061,480.851z M203.788,480.851
			c0-0.942-0.705-1.635-1.652-1.635c-0.953,0-1.663,0.693-1.663,1.635c0,0.941,0.71,1.635,1.663,1.635
			C203.083,482.486,203.788,481.793,203.788,480.851z"/>
		<path style="fill:#FFFFFF;" d="M211.636,481.77h-2.199l-0.474,1.054h-0.434l1.804-3.947h0.412l1.804,3.947h-0.44L211.636,481.77z
			 M211.484,481.432l-0.947-2.12l-0.947,2.12H211.484z"/>
		<path style="fill:#FFFFFF;" d="M217.28,478.878h1.607c1.263,0,2.114,0.812,2.114,1.974c0,1.161-0.851,1.973-2.114,1.973h-1.607
			V478.878z M218.864,482.464c1.049,0,1.725-0.665,1.725-1.612c0-0.947-0.677-1.613-1.725-1.613h-1.167v3.225H218.864z"/>
		<path style="fill:#FFFFFF;" d="M234.041,481.77h-2.199l-0.474,1.054h-0.434l1.804-3.947h0.412l1.804,3.947h-0.44L234.041,481.77z
			 M233.889,481.432l-0.947-2.12l-0.947,2.12H233.889z"/>
		<path style="fill:#FFFFFF;" d="M239.685,478.878h0.417v3.586h2.21v0.361h-2.627V478.878z"/>
		<path style="fill:#FFFFFF;" d="M247.082,478.878h0.417v3.586h2.21v0.361h-2.627V478.878z"/>
		<path style="fill:#FFFFFF;" d="M260.449,479.239v1.551h2.041v0.361h-2.041v1.675h-0.417v-3.947h2.706v0.361H260.449z"/>
		<path style="fill:#FFFFFF;" d="M267.678,478.878h0.417v3.947h-0.417V478.878z"/>
		<path style="fill:#FFFFFF;" d="M273.456,478.878h0.417v3.586h2.21v0.361h-2.627V478.878z"/>
		<path style="fill:#FFFFFF;" d="M283.644,482.464v0.361h-2.791v-3.947h2.706v0.361h-2.289v1.404h2.041v0.355h-2.041v1.466H283.644z
			"/>
		<path style="fill:#FFFFFF;" d="M294.672,479.239v1.551h2.041v0.361h-2.041v1.675h-0.417v-3.947h2.706v0.361H294.672z"/>
		<path style="fill:#FFFFFF;" d="M301.5,480.851c0-1.15,0.879-2.007,2.075-2.007c1.184,0,2.069,0.851,2.069,2.007
			c0,1.156-0.885,2.007-2.069,2.007C302.379,482.858,301.5,482.002,301.5,480.851z M305.226,480.851
			c0-0.942-0.705-1.635-1.652-1.635c-0.953,0-1.663,0.693-1.663,1.635c0,0.941,0.71,1.635,1.663,1.635
			C304.522,482.486,305.226,481.793,305.226,480.851z"/>
		<path style="fill:#FFFFFF;" d="M313.351,482.825l-0.902-1.269c-0.102,0.011-0.203,0.017-0.316,0.017h-1.06v1.252h-0.417v-3.947
			h1.477c1.004,0,1.613,0.507,1.613,1.353c0,0.62-0.327,1.054-0.902,1.24l0.964,1.353H313.351z M313.328,480.231
			c0-0.632-0.417-0.992-1.207-0.992h-1.048v1.979h1.048C312.911,481.218,313.328,480.851,313.328,480.231z"/>
		<path style="fill:#FFFFFF;" d="M322.907,478.878v3.947h-0.4v-3.158l-1.551,2.656h-0.197l-1.551-2.639v3.14h-0.4v-3.947h0.344
			l1.714,2.926l1.697-2.926H322.907z"/>
		<path style="fill:#FFFFFF;" d="M330.744,481.77h-2.199l-0.473,1.054h-0.434l1.804-3.947h0.411l1.804,3.947h-0.44L330.744,481.77z
			 M330.592,481.432l-0.947-2.12l-0.947,2.12H330.592z"/>
		<path style="fill:#FFFFFF;" d="M336.957,479.239h-1.387v-0.361h3.192v0.361h-1.387v3.586h-0.417V479.239z"/>
		<path style="fill:#FFFFFF;" d="M343.063,482.346l0.164-0.321c0.282,0.276,0.784,0.479,1.302,0.479c0.739,0,1.06-0.31,1.06-0.699
			c0-1.083-2.43-0.417-2.43-1.877c0-0.581,0.451-1.083,1.455-1.083c0.446,0,0.908,0.13,1.224,0.35l-0.141,0.333
			c-0.338-0.22-0.733-0.327-1.083-0.327c-0.722,0-1.043,0.321-1.043,0.716c0,1.083,2.43,0.429,2.43,1.866
			c0,0.581-0.462,1.077-1.472,1.077C343.937,482.858,343.356,482.65,343.063,482.346z"/>
	</g>
</g>
<g>
</g>
<g>
	<g>
		<path style="fill:#008CD0;" d="M195.716,307.826c1.607-0.333,4.529-0.579,7.371-0.579c3.745,0,6.051,0.454,7.945,1.771
			c1.727,1.028,2.881,2.842,2.881,5.187c0,2.553-1.604,4.898-4.611,6.012v0.082c2.922,0.738,5.6,3.045,5.6,6.871
			c0,2.471-1.071,4.406-2.678,5.723c-1.974,1.732-5.226,2.596-10.29,2.596c-2.799,0-4.941-0.207-6.218-0.372V307.826z
			 M200.739,318.774h2.594c3.498,0,5.474-1.646,5.474-3.995c0-2.591-1.976-3.783-5.187-3.783c-1.481,0-2.345,0.082-2.881,0.203
			V318.774z M200.739,331.538c0.659,0.121,1.522,0.121,2.676,0.121c3.252,0,6.133-1.235,6.133-4.652
			c0-3.209-2.799-4.526-6.297-4.526h-2.512V331.538z"/>
		<path style="fill:#008CD0;" d="M234.908,330.384c0,1.81,0.082,3.58,0.287,4.816h-4.57l-0.328-2.225h-0.123
			c-1.235,1.568-3.334,2.678-5.928,2.678c-4.037,0-6.3-2.924-6.3-5.969c0-5.067,4.488-7.614,11.897-7.576v-0.328
			c0-1.317-0.536-3.498-4.075-3.498c-1.976,0-4.034,0.618-5.392,1.481l-0.989-3.296c1.481-0.902,4.075-1.771,7.245-1.771
			c6.423,0,8.276,4.078,8.276,8.44V330.384z M229.966,325.405c-3.58-0.087-6.997,0.7-6.997,3.745c0,1.974,1.276,2.881,2.881,2.881
			c2.017,0,3.498-1.317,3.952-2.755c0.123-0.372,0.164-0.787,0.164-1.115V325.405z"/>
		<path style="fill:#008CD0;" d="M240.257,321.12c0-2.302-0.041-4.237-0.164-5.969h4.447l0.246,3.006h0.123
			c0.866-1.563,3.047-3.46,6.382-3.46c3.498,0,7.122,2.268,7.122,8.604V335.2h-5.064v-11.32c0-2.881-1.071-5.062-3.829-5.062
			c-2.017,0-3.416,1.438-3.952,2.963c-0.164,0.454-0.205,1.071-0.205,1.645V335.2h-5.105V321.12z"/>
		<path style="fill:#008CD0;" d="M281.958,332.276c0,4.198-0.866,7.204-2.965,9.101c-2.099,1.853-4.98,2.427-7.74,2.427
			c-2.55,0-5.269-0.536-6.997-1.607l1.11-3.827c1.276,0.738,3.419,1.525,5.846,1.525c3.293,0,5.764-1.732,5.764-6.056v-1.728h-0.082
			c-1.153,1.771-3.211,2.963-5.846,2.963c-4.98,0-8.522-4.116-8.522-9.796c0-6.587,4.283-10.582,9.098-10.582
			c3.047,0,4.857,1.486,5.805,3.132h0.082l0.205-2.678h4.406c-0.082,1.361-0.164,3.006-0.164,5.766V332.276z M276.893,323.18
			c0-0.454-0.041-0.946-0.164-1.361c-0.536-1.853-1.976-3.252-4.116-3.252c-2.842,0-4.941,2.471-4.941,6.548
			c0,3.416,1.73,6.176,4.898,6.176c1.894,0,3.542-1.235,4.118-3.05c0.123-0.536,0.205-1.235,0.205-1.81V323.18z"/>
		<path style="fill:#008CD0;" d="M287.391,305.973h5.105V335.2h-5.105V305.973z"/>
		<path style="fill:#008CD0;" d="M313.533,330.384c0,1.81,0.082,3.58,0.287,4.816h-4.57l-0.328-2.225h-0.123
			c-1.235,1.568-3.334,2.678-5.928,2.678c-4.036,0-6.299-2.924-6.299-5.969c0-5.067,4.488-7.614,11.897-7.576v-0.328
			c0-1.317-0.536-3.498-4.075-3.498c-1.976,0-4.034,0.618-5.392,1.481l-0.989-3.296c1.481-0.902,4.075-1.771,7.245-1.771
			c6.423,0,8.276,4.078,8.276,8.44V330.384z M308.591,325.405c-3.58-0.087-6.997,0.7-6.997,3.745c0,1.974,1.276,2.881,2.881,2.881
			c2.017,0,3.498-1.317,3.952-2.755c0.123-0.372,0.164-0.787,0.164-1.115V325.405z"/>
		<path style="fill:#008CD0;" d="M337.365,305.973v23.586c0,2.06,0.082,4.28,0.164,5.641h-4.526l-0.207-3.17h-0.082
			c-1.194,2.225-3.621,3.624-6.546,3.624c-4.775,0-8.563-4.077-8.563-10.249c-0.041-6.712,4.159-10.708,8.975-10.708
			c2.758,0,4.734,1.153,5.638,2.635h0.084v-11.359H337.365z M332.303,323.508c0-0.41-0.043-0.907-0.125-1.317
			c-0.451-1.974-2.058-3.58-4.362-3.58c-3.252,0-5.064,2.881-5.064,6.625c0,3.667,1.812,6.341,5.023,6.341
			c2.058,0,3.868-1.399,4.362-3.58c0.123-0.454,0.166-0.946,0.166-1.481V323.508z"/>
		<path style="fill:#008CD0;" d="M346.382,326.596c0.123,3.624,2.963,5.187,6.174,5.187c2.345,0,4.034-0.328,5.556-0.907
			l0.741,3.498c-1.727,0.7-4.116,1.279-6.997,1.279c-6.505,0-10.334-4.034-10.334-10.167c0-5.559,3.375-10.79,9.798-10.79
			c6.546,0,8.645,5.351,8.645,9.757c0,0.951-0.082,1.689-0.164,2.142H346.382z M355.19,323.055c0.041-1.853-0.782-4.898-4.157-4.898
			c-3.129,0-4.447,2.842-4.652,4.898H355.19z"/>
		<path style="fill:#008CD0;" d="M363.794,330.548c1.153,0.7,3.334,1.443,5.146,1.443c2.222,0,3.209-0.907,3.209-2.225
			c0-1.361-0.823-2.06-3.293-2.924c-3.909-1.356-5.556-3.498-5.515-5.844c0-3.542,2.924-6.302,7.576-6.302
			c2.222,0,4.157,0.579,5.31,1.197l-0.989,3.58c-0.864-0.492-2.471-1.153-4.239-1.153c-1.812,0-2.801,0.864-2.801,2.099
			c0,1.279,0.948,1.896,3.501,2.799c3.621,1.317,5.31,3.17,5.351,6.138c0,3.619-2.84,6.297-8.15,6.297
			c-2.43,0-4.613-0.618-6.094-1.443L363.794,330.548z"/>
		<path style="fill:#008CD0;" d="M381.206,305.973h5.105v11.938h0.082c0.618-0.946,1.481-1.771,2.512-2.306
			c0.987-0.574,2.181-0.907,3.457-0.907c3.416,0,6.999,2.268,6.999,8.691V335.2h-5.064v-11.238c0-2.924-1.071-5.105-3.87-5.105
			c-1.976,0-3.375,1.317-3.911,2.842c-0.164,0.41-0.205,0.946-0.205,1.52V335.2h-5.105V305.973z"/>
	</g>
	<g>
		<path style="fill:#008CD0;" d="M152.595,181.146c2.955,3.522,8.118,5.597,11.148,9.127c-2.167-10.436-10.224-18.963-19.751-20.994
			C148.633,172.776,149.637,177.621,152.595,181.146z M38.09,207.605c6.559-14.28,16.354-11.257,20.498-24.864
			c-2.34,4.173-13.036,5.933-18.002,16.632c2.535-6.357,1.264-16.08,5.55-21.328C33.319,187.5,38.78,202.803,38.09,207.605z
			 M49.974,241.85c1.177,5.567-2.279,13.589,3.215,21.258c-5.697-6.383-17.751-8.008-22.684-17.716
			c6.152,23.724,22.167,18.838,29.399,23.993C53.959,260.845,58.823,255.167,49.974,241.85z M48.125,256.747
			c-3.546-13.262,2.751-17.83-2.033-30.561c-0.498,7.168-5.275,10.663-2.052,23.768C38.35,238.848,29.548,234.718,27,227.103
			C27.178,247.922,43.902,251.002,48.125,256.747z M73.81,278.977c-4.922-6.813-1.561-10.665-15.393-23.042
			c2.929,4.521-0.091,10.202,9.237,19.038c-9.126-5.384-21.719-3.08-27.786-10.272C50.292,284.646,68.617,276.497,73.81,278.977z
			 M140.753,274.973c9.33-8.837,6.308-14.517,9.237-19.038c-13.832,12.376-10.471,16.229-15.395,23.042
			c5.193-2.48,23.52,5.669,33.943-14.276C162.472,271.894,149.878,269.589,140.753,274.973z M155.216,263.108
			c5.496-7.669,2.037-15.691,3.215-21.258c-8.847,13.318-3.985,18.995-9.932,27.536c7.236-5.156,23.251-0.269,29.399-23.993
			C172.967,255.101,160.915,256.725,155.216,263.108z M133.121,279.918c-5.408-1.443-10.977-2.16-15.125-2.264
			c-5.17-0.129-9.791,0.849-13.792,2.342c-4.002-1.492-8.622-2.471-13.792-2.342c-4.148,0.104-9.717,0.821-15.125,2.264
			c-8.319,2.218-15.514,3.932-21.781,0.76c6.005,5.331,13.019,7.234,23.149,6.144c8.438-0.912,15.24-5.124,23.191-5.069
			c0.108,0.002,0.208,0.009,0.312,0.011c-8.379,4.228-13.109,10.192-13.109,10.192l3.834,0.517c0,0,4.041-8.115,13.319-10.223
			c9.282,2.108,13.318,10.223,13.318,10.223l3.836-0.517c0,0-4.728-5.963-13.107-10.192c0.104-0.002,0.204-0.009,0.309-0.011
			c7.953-0.055,14.757,4.158,23.191,5.069c10.133,1.09,17.145-0.813,23.15-6.144C148.633,283.85,141.438,282.136,133.121,279.918z
			 M46.66,211.817c-3.435,6.581-8.765,8.089-8.196,21.682c-2.875-12.075-9.75-16.566-9.661-24.286
			c-4.784,20.133,7.99,22.527,11.272,30.965C39.592,228.083,47.311,225.646,46.66,211.817z M51.453,196.268
			c-1.195,1.671-2.035,2.382-5.221,5.004c-4.342,3.578-7.812,8.283-9.272,15.142c0.329-7.381-4.23-17.99-1.195-25.724
			c-11.746,16.582,0.667,26.514,1.108,32.515C39.908,211.651,46.905,211.561,51.453,196.268z M171.449,216.414
			c-1.464-6.859-4.933-11.564-9.276-15.142c-3.184-2.623-4.026-3.333-5.221-5.004c4.55,15.292,11.546,15.383,14.583,26.937
			c0.44-6.001,12.854-15.933,1.108-32.515C175.675,198.424,171.116,209.033,171.449,216.414z M181.407,227.103
			c-2.55,7.616-11.352,11.745-17.04,22.851c3.223-13.105-1.552-16.6-2.054-23.768c-4.786,12.73,1.513,17.299-2.031,30.561
			C164.505,251.002,181.229,247.922,181.407,227.103z M161.745,211.817c-0.651,13.829,7.068,16.266,6.585,28.361
			c3.282-8.438,16.058-10.832,11.274-30.965c0.089,7.72-6.788,12.211-9.661,24.286C170.509,219.906,165.182,218.398,161.745,211.817
			z M55.812,181.146c2.959-3.525,3.962-8.37,8.602-11.867c-9.527,2.031-17.582,10.558-19.751,20.994
			C47.693,186.743,52.855,184.668,55.812,181.146z M149.817,182.74c4.146,13.608,13.941,10.584,20.498,24.864
			c-0.688-4.802,4.773-20.104-8.044-29.56c4.286,5.249,3.015,14.971,5.55,21.328C162.855,188.674,152.157,186.914,149.817,182.74z
			 M116.561,190.467c-2.464-1.019-5.078-1.745-7.802-2.127c-0.013,0.576-0.024,1.164-0.037,1.746c2.513,0.369,4.925,1.04,7.2,1.981
			C116.227,191.589,116.442,191.06,116.561,190.467z M114.576,173.625l0.526-0.47l-0.994-0.422l-2.622-0.051l-0.682,0.473
			l-1.544-0.127l-0.017,0.374c0.981,0.063,1.94,0.157,2.699,0.287l1.275-0.116L114.576,173.625z M109.532,230.093
			c0-0.446-0.587-0.883-1.461-1.292l-0.156-0.003c-0.011,0.362-0.041,2.134-0.06,3.002
			C108.934,231.314,109.532,230.796,109.532,230.093z M79.193,196.815c0.06-0.357,0.13-0.645,0.223-0.962
			c-0.327,0.081-0.703,0.118-1.072,0.111L79.193,196.815z M104.259,273.851c29.457,0,53.421-23.966,53.421-53.425
			c0-27.63-21.084-50.426-48.007-53.149c-0.022,0.102-0.045,0.207-0.065,0.308c-0.106,0.519-0.203,0.987-0.281,1.401
			c12.057,1.18,22.913,6.519,31.109,14.561l-5.897,5.896l0.225-1.036l-0.769-0.343l-1.063-0.061l0.227-0.679l-0.716-2.414
			l-1.466-1.609l-4.606-2.431l-0.394,0.424l-0.836,0.244c1.58,2.331,2.437,5.022,2.437,7.746c0,0.354-0.009,0.702-0.028,1.045
			l2.286,2.869l-1.072,0.251l0.708,1.067l-2.015,2.013l-0.81-1.543c-0.387,1.077-0.896,2.079-1.524,3.009
			c0.151,0.139,0.305,0.274,0.452,0.417l-6.204,6.204c-0.377-0.359-0.769-0.702-1.171-1.034c-0.593,0.276-1.199,0.533-1.818,0.771
			c0.178,0.135,0.355,0.269,0.53,0.411l-0.316,0.316l-0.725,0.408l-0.273,0.725l-0.452-0.453l-1.308,0.439l0.357,0.573l0.905-0.241
			l0.589,0.045l0.045-0.318l0.454-0.227l0.137-0.272l0.814-0.226l0.636-0.029c0.123,0.111,0.249,0.222,0.372,0.337l-2.463,2.462
			l-0.184-0.265l-2.57,0.428l-0.573,0.574l-0.567,0.066l1.6-1.53l-0.574-0.287l-1.487,1.996l0.435-0.046l-0.026,0.734l0.546,0.21
			l0.108,0.786l-0.896-0.18l-0.937,0.173l-2.256-1.162c0,0-0.123,6.065-0.186,9.114c5.329,1.793,10.988,4.382,10.988,11.183
			c0,2.985-1.294,5.4-3.836,7.183l0.022,0.006c-0.037,0.026-0.078,0.051-0.117,0.076l-0.011-0.007
			c-0.058,0.039-0.112,0.08-0.171,0.119c-2.156,1.425-4.927,2.184-7.332,2.938c-0.013,0.006-0.071,4.761-0.071,4.761
			c3.823,1.9,8.46,4.667,8.033,12.574c-0.052,1.947-0.81,2.481-1.461,2.659v0.002c-2.236,0.553-4.546,0.922-6.908,1.091
			c-0.013,0.613-0.022,1.201-0.032,1.743c10.291-0.705,19.597-5.053,26.633-11.763l6.204,6.203
			c-9.295,8.939-21.915,14.441-35.798,14.441c-13.807,0-26.368-5.443-35.649-14.295l6.208-6.207
			c6.966,6.579,16.125,10.858,26.254,11.606c-0.011-0.537-0.02-1.122-0.03-1.742c-9.639-0.749-18.355-4.83-24.998-11.089l1.658-1.66
			l2.271,0.262l1.208-1.303l3.171,0.11l0.468-1.1l-0.11-0.464c4.593,3.489,10.139,5.779,16.172,6.409
			c-0.011-0.677-0.022-1.269-0.032-1.747c-6.665-0.742-12.69-3.622-17.372-7.944l6.211-6.21c1.505,1.346,3.197,2.486,5.033,3.377
			c0.138-0.592,0.349-1.136,0.625-1.631c-1.61-0.796-3.1-1.796-4.431-2.974l6.226-6.223c0.985,0.794,2.108,1.42,3.323,1.852
			c-0.011-0.619-0.024-1.265-0.035-1.872c-0.738-0.322-1.429-0.729-2.057-1.215l1.758-1.755c-0.617-0.187-1.238-0.383-1.859-0.595
			l-1.171,1.173c-0.595-0.66-1.097-1.401-1.492-2.208c-1.072-0.472-2.108-1.009-3.072-1.644c-3.825-2.515-5.763-6.064-5.763-10.547
			c0-3.424,0.957-6.016,2.515-8.026l-6.193-6.192c4.461-4.26,10.196-7.196,16.571-8.159c-0.011-0.602-0.022-1.188-0.033-1.745
			c-6.84,0.984-12.995,4.112-17.762,8.68l-1.046-1.045c-0.238,0.415-0.517,0.946-0.833,1.617l0.658,0.659
			c-5.33,5.676-8.639,13.264-8.776,21.614h-8.785c0.139-10.77,4.433-20.558,11.35-27.826l2.792,2.791
			c0.126,0.002,0.26-0.001,0.394-0.011c0.494-0.036,1.046-0.19,1.583-0.463l-3.546-3.546c1.873-1.812,3.92-3.447,6.111-4.881
			c0.173-0.589,0.338-1.105,0.431-1.292c0.108-0.216,0.665-0.951,1.344-1.8c-3.333,1.845-6.395,4.118-9.111,6.748l-6.206-6.204
			c8.139-7.919,18.866-13.189,30.778-14.397c-0.041-0.212-0.071-0.376-0.071-0.376c-0.082-0.413-0.171-0.861-0.26-1.334
			c-26.844,2.799-47.84,25.559-47.84,53.131C50.838,249.885,74.803,273.851,104.259,273.851z M115.792,236.943l-0.007-0.044
			l0.019,0.036C115.799,236.938,115.796,236.942,115.792,236.943z M141.656,184.779c8.735,9.158,14.144,21.512,14.285,35.106h-8.776
			c-0.086-6.732-1.729-13.094-4.583-18.744l0.078-0.158l0.608,0.321l0.143-0.464l-1.572-2.751l-1.859-2.574l-2.18-1.82
			c-0.747-0.935-1.53-1.84-2.351-2.711L141.656,184.779z M130.475,196.029l2.111,0.094l0.498,0.608l-0.249,0.894l2.929,1.822
			l0.573-0.072l3.749,4.287l1.533-0.535c2.375,5.108,3.736,10.782,3.812,16.759h-8.785c-0.037-2.293-0.322-4.525-0.814-6.68
			l0.402-0.542l0.543-2.75l-0.409-2.958l-1.058-3.398l-2.45-3.582l0.593,0.315l0.299-0.3l-1.965-1.332l-0.13,0.438l1.966,2.808
			l1.115,2.305l0.792,2.281l0.253,1.536l0.407,2.582l-0.738,0.054c0,0-0.848-1.58-1.108-2.236l0.394-0.586l-0.751-1.072v-1.071
			l-0.535-0.678l-0.665,0.085c-0.238-0.443-0.487-0.881-0.747-1.31l0.47,0.242l0.128-0.127l-0.253-0.553l0.573-0.322l-0.258-0.323
			l-0.849,0.323l0.309-1.333l-0.5-0.287l-0.453,1.063c-0.957-1.434-2.022-2.793-3.193-4.057L130.475,196.029z M128.717,216.61
			l1.574-0.859l1.608-0.251l0.355-0.784l0.894-0.537l0.346-0.749l0.279-1.298c0.126,0.458,0.245,0.92,0.353,1.386l-0.851,2.54
			l-0.037,0.858l1.242-1.649c0.256,1.505,0.409,3.047,0.435,4.619h-7.694l-0.178-0.669l0.892-0.712l0.178-0.431l0.392-0.284
			l1.037-0.108l0.108-0.464L128.717,216.61z M118.178,210.573l0.784-0.181l-0.037-0.189l-0.782-0.524l0.268-1.656l0.939-0.938
			c0.589,0.667,1.134,1.374,1.634,2.115l-0.329,1.018l-0.859-0.611l-0.652,0.178l0.32,0.605h0.323l-0.357,0.893l-0.251-0.356
			L118.178,210.573z M121.541,239.728l-1.898-0.542l-0.572,0.213L118,238.578l-1.007-0.362c0.498-0.36,0.981-0.736,1.446-1.133
			l1.565,1.101l1.189,0.63l0.593,0.592L121.541,239.728z M120.576,205.857l6.211-6.21c1.453,1.575,2.74,3.306,3.844,5.159
			l-0.777,0.212l0.041,1.388l2.331,1.47c0.569,1.265,1.056,2.575,1.453,3.923l-0.409,0.596l-0.838,0.534l-0.212,1.289l-0.574,0.32
			l-0.476,0.568l-0.489-0.175l-0.855-0.037l0.5-0.677l0.355-1.752l0.571-0.356l-1.676-1.609l-1.251,0.428l-0.284,1.18l-0.788,0.856
			l-0.82-0.68l-0.292-0.719l0.468-0.29l0.258,0.473l0.385-0.139l-0.165-0.791l-0.548-0.032l-0.037,0.32l-0.357,0.074l-1.927-2.25
			l-0.652-0.505l0.249-0.269l0.587-0.204l-0.543-0.211c0,0-0.684,0.154-0.76,0.154l0.387,0.488l-0.98-0.019
			C121.921,207.483,121.278,206.643,120.576,205.857z M123.739,238.906l-0.844-0.84l0.647-0.84l0.81-1.648l-0.316-0.467l0.539-1.22
			l-0.061-1.103l-0.325-1.14l-0.766-0.272l-0.282,0.647l-0.455-0.123c0.662-1.054,1.359-2.045,1.834-3.208l0.792-0.34l0.441-0.598
			l0.214,0.249l0.535-0.643l-0.427-0.537l0.394-0.106l0.714,0.286l1.357,0.037l0.822-0.429l2.143-0.57l-0.403-0.713l-0.139-0.862
			l1.151,0.503l0.429-0.249l-0.214-0.895l-1.412,0.53l-1.554-0.317l-1.18-2.418h6.717c-0.297,7.73-3.468,14.73-8.473,19.971
			l-0.925-0.923l0.398-1.234l-0.714-2.714L123.739,238.906z M124.925,256.034l0.827-1.772l-0.322-0.786l1.216-1.073v-0.641
			l-1.037-0.646l0.859-1.713l1.286-1.679l-1.286-1.392h-0.966l-0.6-0.968c0.517-0.429,1.026-0.868,1.515-1.328l6.213,6.212
			C130.302,252.461,127.717,254.406,124.925,256.034z M132.662,247.831l0.682-0.765l-0.643-3.394l-0.452-0.178l0.277-0.574
			l-1.468-0.464l-0.284,1.215l-0.143,1.538l-0.308,0.281l-2.676-2.676c5.321-5.553,8.683-12.988,8.984-21.195h8.787
			c-0.303,10.627-4.654,20.26-11.56,27.405L132.662,247.831z M135.082,250.251c7.221-7.461,11.767-17.525,12.072-28.631h8.78
			c-0.308,13.526-5.838,25.783-14.647,34.834L135.082,250.251z M82.241,241.74c-0.636-0.657-1.243-1.344-1.818-2.055l0.268-2.218
			l-0.929-2.133L79.542,232l-1.039-2.023l0.221-1.259l-1.258-2.403l-1.095-0.546l0.444-1.28l-0.459-1.013l0.453-1.153h1.201
			l0.424-0.704h2.05l0.322,0.605l-0.387,2.086l-0.249,0.36l0.769,1.678l-0.506,0.278l-0.353-0.446l-0.149,0.167l0.349,0.995
			l0.602,1.162l0.282-0.028l0.166-1.041l-0.292-0.384l-0.033-0.704l-0.086-1.456l0.427-2.577l-0.416-0.696h1.472
			c0.29,5.384,2.539,10.255,6.04,13.917L82.241,241.74z M76.438,224.576l-0.833,1.3h-1.422l-0.11-0.082
			c-0.242-1.363-0.398-2.757-0.45-4.175h2.647l-0.636,2.119L76.438,224.576z M79.323,218.553l0.165-1.75l1.039-0.602l1.859,0.328
			l0.282,0.338c-0.163,0.985-0.26,1.993-0.282,3.017h-2.108L79.323,218.553z M88.235,225.112l0.437-0.219l1.154,0.864l-0.5,0.408
			l1.29,0.858l-0.08-0.922l0.686-1.138l0.721,0.762l0.736,1.058l-1.327,0.295l0.602,1.203l0.925-0.489l-0.119-0.387l0.691-0.469
			l0.409-1.911c0.504,1.136,1.186,2.177,2.015,3.082l-6.204,6.204c-2.963-3.11-4.94-7.159-5.438-11.651l1.269,1.355l1.195-0.024
			L88.235,225.112z M81.877,199.497l6.204,6.204c-1.297,1.423-2.405,3.016-3.293,4.744l-0.435-0.027l-0.874,0.273l-0.299-0.028
			l-0.933,0.863l1.178-0.189l1.054-0.265c-0.061,0.134-0.125,0.268-0.186,0.403l-0.922,0.571h-0.439l-1.368,1.039l-1.312-0.11
			l-1.911,3.554l0.383,0.712l-1.041,1.147l-0.156,1.497h-3.922C73.743,212.013,76.858,204.858,81.877,199.497z M73.857,246.322
			l1.968,1.149l0.409,0.277l-1.427,1.426c-0.669-0.687-1.308-1.403-1.929-2.135L73.857,246.322z M71.89,221.619
			c0.032,0.855,0.104,1.7,0.201,2.537l-1.076,0.244l-0.219,1.094l-2.242,2.843l0.058,3.914l-2.297,0.766l-1.256,0.011
			c-1.165-3.613-1.846-7.441-1.957-11.408H71.89z M63.224,232.971l-0.519-0.097l-0.492-0.546l-2.461-0.218l0.766,1.038l-2.284-0.433
			l0.6-0.548l-0.558-0.548l-1.647,0.715l-0.587,1.093l0.225,2.498l1.89,4.537l0.914,1.423l0.522,0.193l-1.437-2.719l-0.312-1.384
			l0.323-0.341l-0.197-0.764l0.859,0.115l1.323,2.003l0.333,0.135l-0.037-1.461l0.535,0.311l0.117,0.797l1.394,0.368l0.58-0.418
			l0.201,0.141l-0.026,1.066l0.617,0.755l0.743,0.169l1.628,2.754l0.985,0.275l0.307-1.289c1.716,2.833,3.749,5.453,6.053,7.81
			l-6.206,6.204c-8.893-9.066-14.484-21.384-14.792-34.984h8.78C61.473,225.557,62.116,229.364,63.224,232.971z M67.01,184.63
			l6.202,6.204c-7.23,7.583-11.717,17.803-11.858,29.051h-8.776C52.719,206.216,58.189,193.805,67.01,184.63z M130.557,181.429
			l-0.535-0.857l-1.141-0.573l-0.896,0.682l1.143,0.608l1.284,0.928L130.557,181.429z M125.237,206.199l0.035,0.679l1.522-0.456
			l0.465-0.929l-1.052-1.376l0.559-0.839l1.422,1.012l0.26-0.208l-0.282-0.204l-0.321-0.608l0.584-0.335l-0.574-0.75l-1.329,0.675
			l-0.466,0.804l-0.264,0.731l0.587,0.985l-0.216,0.464L125.237,206.199z M61.763,245.575l0.106-0.397l-0.79-1.716l-0.937-0.347
			L61.763,245.575z M97.652,212.584c0,1.477,0.9,2.511,2.531,3.409c0,0.001-0.006-0.251-0.015-0.654l-1.026-1.027l0.543-0.987
			l0.442-0.124c-0.033-1.718-0.069-3.64-0.074-3.911l-0.082,0.01C98.474,210.126,97.652,211.141,97.652,212.584z"/>
		<g>
			<path style="fill:#008CD0;" d="M107.462,250.634c2.753,1.392,5.297,3.316,6.36,6.969c0.465-6.045-2.925-8.668-6.289-10.438
				C107.536,247.172,107.46,250.635,107.462,250.634z"/>
			<path style="fill:#008CD0;" d="M125.771,189.281c0-5.495-3.987-11.587-13.748-13.739c-0.721-0.159-1.825-0.271-2.977-0.344
				c-0.018,0.826-0.063,2.723-0.063,2.723c-0.015,0.595-0.063,2.794-0.074,3.267c0.901,0.078,1.567,0.19,1.875,0.264
				c5.674,1.356,7.704,4.61,7.704,7.828c0,5.212-4.461,7.178-9.938,8.663c-0.595,0.162-1.203,0.317-1.816,0.473
				c-1.662,0.414-3.375,0.813-5.063,1.268c-0.606,0.163-1.206,0.334-1.799,0.516l0,0c-6.074,1.849-11.293,4.778-11.293,12.283
				c0,7.432,5.953,10.211,11.769,12.001c-0.041-2.135-0.082-4.29-0.123-6.444c-2.569-1.201-4.379-2.786-4.379-5.456
				c0-2.604,1.649-4.177,4.167-5.316c0.559-0.251,1.16-0.483,1.795-0.699c1.45-0.494,3.076-0.91,4.784-1.323
				c0.595-0.145,1.202-0.292,1.814-0.44l0,0C116.595,202.822,125.771,200.261,125.771,189.281z"/>
			<path style="fill:#008CD0;" d="M96.351,241.705c0.015,3.002,2.219,4.64,4.433,5.875c-0.009-0.506-0.095-5.151-0.097-5.232
				c0.048-0.926,0.946-1.481,1.671-1.824c1.065-0.504,2.143-0.867,3.516-1.344c0.654-0.226,1.219-0.449,1.846-0.637l0,0
				c4.444-1.338,9.579-3.045,9.579-8.449c0-5.413-4.405-7.628-9.22-9.289c-0.035,1.724-0.086,4.238-0.121,5.976
				c2.035,0.799,3.381,1.771,3.381,3.313c0,1.935-2.067,3.049-3.531,3.613c-0.61,0.239-1.539,0.547-1.795,0.627
				c-1.182,0.368-2.453,0.792-3.639,1.228c-0.625,0.234-1.232,0.488-1.799,0.779C98.492,237.41,96.336,238.969,96.351,241.705z"/>
			<path style="fill:#008CD0;" d="M99.358,176.054c-2.955,0.845-4.695,1.96-5.353,2.181c-1.916,0.636-4.617,0.745-7.404,3.779
				c-0.498,0.541-1.702,2.064-2.561,3.307c-0.84,1.213-0.877,3.161-1.498,4.205c-0.892,1.516-0.68,2.384-0.68,2.384l0.026,0.045
				c-0.03,0.188-0.208,0.992-1.024,1.901c-0.933,1.034-2.16,1.607-3.619,1.373c1.268,0.636,3.026-0.253,3.026-0.253
				s-0.334,0.959-0.673,2.528c1.427-3.229,2.732-4.408,3.143-4.736c0.615,0.14,1.883,0.083,4.239-1.268
				c2.661-1.529,6.67-4.027,7.802-5.605c1.223-1.702,2.903-2.828,4.721-3.557C99.451,179.957,99.403,177.84,99.358,176.054z
				 M87.727,186.58l-1.375,0.299l2.033-3.144l1.929,0.06L87.727,186.58z"/>
		</g>
		<g>
			<path style="fill:#008CD0;" d="M104.86,241.333c-0.257,0.09-0.926,0.375-1.346,0.522c-0.446,0.161-1.013,0.387-1.011,0.546
				c0,0.039,0.427,23.283,0.427,23.794c0,4.788,2.44,4.816,2.44,0c0-0.341,0.489-25.191,0.489-25.191
				S105.272,241.184,104.86,241.333z"/>
			<path style="fill:#008CD0;" d="M102.336,233.663c0.762-0.264,1.515-0.496,2.219-0.713c0.532-0.164,1.022-0.315,1.476-0.464
				c0.03-1.463,0.446-21.692,0.52-25.37c-1.818,0.452-3.397,0.878-4.702,1.356C101.903,211.233,102.295,231.453,102.336,233.663z"/>
			<path style="fill:#008CD0;" d="M104.367,156.196c-6.845,0-3.938,10.154-3.396,13.465c0.026,0.155,0.554,22.94,0.662,28.169
				c1.039-0.274,2.071-0.529,3.072-0.774c0.719-0.177,1.407-0.348,2.069-0.516c0.106-5.033,0.61-26.778,0.624-26.922
				C107.807,166.08,111.395,156.196,104.367,156.196z"/>
		</g>
	</g>
	<g>
		<g>
			<path style="fill:#008CD0;" d="M216.258,188.563h-0.104l-5.801,31.661h-7.958l-7.434-38.635h6.327l5.167,29.779h0.104
				l5.535-29.779h8.224l5.485,29.779h0.104l5.377-29.779h6.113l-7.591,38.635h-8.062L216.258,188.563z"/>
			<path style="fill:#008CD0;" d="M248.629,191.276c5.535,0,11.915,3.044,11.915,14.667c0,11.957-6.381,14.724-11.915,14.724
				c-5.535,0-11.966-2.767-11.966-14.724C236.663,194.32,243.094,191.276,248.629,191.276z M248.629,215.797
				c4.219,0,5.171-5.094,5.171-9.854c0-4.761-0.952-9.796-5.171-9.796c-4.215,0-5.219,5.035-5.219,9.796
				C243.41,210.703,244.414,215.797,248.629,215.797z"/>
			<path style="fill:#008CD0;" d="M264.601,196.423c0-1.771-0.052-3.432-0.208-4.705h5.903c0.052,1.715,0.212,3.488,0.212,5.202
				h0.104c0.792-2.213,2.847-5.645,6.907-5.645c0.424,0,0.736,0.111,1.111,0.164v6.421c-0.584-0.165-1.163-0.276-1.847-0.276
				c-2.691,0-5.643,1.715-5.643,7.028v15.61h-6.539V196.423z"/>
			<path style="fill:#008CD0;" d="M282.749,178.71h6.537v41.514h-6.537V178.71z"/>
			<path style="fill:#008CD0;" d="M316.56,178.71v36.644c0,2.048,0.056,3.818,0.212,4.87h-6.115
				c-0.104-0.83-0.212-2.491-0.212-4.427h-0.156c-1.056,2.435-3.005,4.869-7.224,4.869c-6.747,0-9.54-6.753-9.54-14.669
				c0-9.297,3.531-14.722,9.386-14.722c3.899,0,6.059,2.324,7.01,4.54h0.104V178.71H316.56z M304.858,215.631
				c3.849,0,5.167-4.373,5.167-9.743c0-5.536-1.476-9.575-5.063-9.575c-3.639,0-4.903,3.708-4.903,9.41
				C300.06,212.309,301.063,215.631,304.858,215.631z"/>
			<path style="fill:#008CD0;" d="M338.097,181.589h6.75v15.72h10.91v-15.72h6.75v38.635h-6.75v-17.048h-10.91v17.048h-6.75V181.589
				z"/>
			<path style="fill:#008CD0;" d="M387.547,218.841c-1.37,0.61-4.217,1.826-8.115,1.826c-8.754,0-12.549-6.586-12.549-14.28
				c0-8.524,4.271-15.11,11.177-15.11c5.849,0,10.858,3.597,10.858,15.221v1.329H373.21c0,4.871,1.845,7.805,6.906,7.805
				c4.007,0,5.903-1.275,7.115-2.215L387.547,218.841z M382.592,203.509c0-5.038-1.58-7.585-4.531-7.585
				c-3.427,0-4.851,3.819-4.851,7.585H382.592z"/>
			<path style="fill:#008CD0;" d="M394.771,193.378c1.846-0.886,4.425-2.102,8.594-2.102c8.432,0,10.382,4.317,10.382,11.457v12.454
				c0,2.048,0.214,3.931,0.37,5.037h-5.903c-0.318-1.106-0.37-2.491-0.37-3.874h-0.104c-1.636,2.324-3.693,4.317-7.592,4.317
				c-4.219,0-8.118-3.042-8.118-8.357c0-7.75,6.011-9.687,14.289-9.687h1.316v-1.051c0-2.822-1.316-5.424-5.061-5.424
				c-3.269,0-6.169,1.661-7.432,2.767L394.771,193.378z M407.634,206.277h-0.58c-5.591,0-8.91,1.217-8.91,5.368
				c0,2.601,1.634,4.373,4.165,4.373c3.901,0,5.325-3.043,5.325-8.137V206.277z"/>
			<path style="fill:#008CD0;" d="M420.18,178.71h6.538v41.514h-6.538V178.71z"/>
			<path style="fill:#008CD0;" d="M434.888,185.851l6.539-2.103v7.971h5.427v5.037h-5.427v14.779c0,3.045,1.052,3.931,2.951,3.931
				c1.158,0,2.002-0.333,2.476-0.609v4.869c-1,0.498-2.424,0.94-4.375,0.94c-4.851,0-7.59-2.325-7.59-8.3v-15.611h-4.321v-5.037
				h4.321V185.851z"/>
			<path style="fill:#008CD0;" d="M450.229,178.71h6.537v16.661h0.158c1.16-1.771,2.687-4.095,6.747-4.095
				c6.17,0,8.014,4.816,8.014,10.573v18.376h-6.538v-17.104c0-4.371-1.052-6.2-3.74-6.2c-3.429,0-4.641,3.044-4.641,6.699v16.605
				h-6.537V178.71z"/>
		</g>
		<g>
			<path style="fill:#008CD0;" d="M209.353,230.508c7.646,0,14.655,5.978,14.655,19.873c0,13.893-7.009,19.871-14.655,19.871
				c-7.644,0-14.657-5.978-14.657-19.871C194.696,236.486,201.709,230.508,209.353,230.508z M209.353,264.827
				c4.269,0,7.696-3.818,7.696-14.446c0-10.629-3.427-14.448-7.696-14.448c-4.271,0-7.698,3.818-7.698,14.448
				C201.655,261.008,205.082,264.827,209.353,264.827z"/>
			<path style="fill:#008CD0;" d="M228.411,245.895c0-1.771-0.054-3.429-0.21-4.704h5.905c0.052,1.717,0.212,3.489,0.212,5.205
				h0.104c0.792-2.215,2.847-5.648,6.906-5.648c0.422,0,0.736,0.112,1.104,0.167v6.421c-0.576-0.167-1.156-0.276-1.844-0.276
				c-2.688,0-5.639,1.714-5.639,7.028V269.7h-6.539V245.895z"/>
			<path style="fill:#008CD0;" d="M246.49,274.126c1.528,0.887,4.587,2.437,8.014,2.437c6.169,0,7.17-4.484,7.17-8.968v-2.714
				h-0.106c-1.052,2.215-2.899,4.818-7.168,4.818c-3.797,0-9.492-2.659-9.492-14.173c0-7.86,2.691-14.779,9.808-14.779
				c3.953,0,5.801,2.382,7.172,4.872h0.208c0-1.496,0.156-2.934,0.212-4.429h5.903c-0.104,1.495-0.21,2.99-0.21,4.485v21.033
				c0,8.913-2.583,15.278-12.547,15.278c-4.321,0-7.75-1.162-9.332-1.771L246.49,274.126z M256.658,264.662
				c4.111,0,5.745-3.1,5.745-9.576c0-5.978-2.161-9.191-5.273-9.134c-3.427,0.057-4.743,3.375-4.743,9.189
				C252.387,261.838,254.443,264.662,256.658,264.662z"/>
			<path style="fill:#008CD0;" d="M275.069,242.853c1.847-0.887,4.431-2.106,8.594-2.106c8.438,0,10.386,4.318,10.386,11.458v12.456
				c0,2.046,0.212,3.928,0.368,5.038h-5.903c-0.316-1.11-0.372-2.492-0.372-3.877h-0.104c-1.632,2.326-3.691,4.318-7.59,4.318
				c-4.215,0-8.118-3.044-8.118-8.358c0-7.748,6.011-9.687,14.285-9.687h1.32v-1.05c0-2.824-1.32-5.426-5.059-5.426
				c-3.271,0-6.169,1.661-7.434,2.77L275.069,242.853z M287.934,255.75h-0.578c-5.589,0-8.912,1.219-8.912,5.368
				c0,2.602,1.636,4.373,4.165,4.373c3.901,0,5.325-3.042,5.325-8.137V255.75z"/>
			<path style="fill:#008CD0;" d="M300.639,245.895c0-1.771-0.054-3.429-0.212-4.704h6.117c0.054,1.44,0.21,2.933,0.21,4.375h0.158
				h-0.054c0.95-1.716,2.795-4.818,7.226-4.818c6.165,0,8.012,4.818,8.012,10.573V269.7h-6.537v-17.105
				c0-4.372-1.056-6.198-3.743-6.198c-3.429,0-4.639,3.043-4.639,6.697V269.7h-6.538V245.895z"/>
			<path style="fill:#008CD0;" d="M327.987,229.069h6.75v6.753h-6.75V229.069z M328.092,241.191h6.537V269.7h-6.537V241.191z"/>
			<path style="fill:#008CD0;" d="M340.714,263.776l11.598-17.38h-11.23v-5.205h17.768v5.869l-11.386,17.434h11.752v5.206h-18.502
				V263.776z"/>
			<path style="fill:#008CD0;" d="M365.403,242.853c1.847-0.887,4.431-2.106,8.596-2.106c8.436,0,10.384,4.318,10.384,11.458v12.456
				c0,2.046,0.21,3.928,0.372,5.038h-5.903c-0.32-1.11-0.372-2.492-0.372-3.877h-0.108c-1.632,2.326-3.687,4.318-7.587,4.318
				c-4.219,0-8.12-3.044-8.12-8.358c0-7.748,6.009-9.687,14.285-9.687h1.318v-1.05c0-2.824-1.318-5.426-5.059-5.426
				c-3.267,0-6.171,1.661-7.434,2.77L365.403,242.853z M378.269,255.75h-0.58c-5.589,0-8.91,1.219-8.91,5.368
				c0,2.602,1.636,4.373,4.165,4.373c3.901,0,5.325-3.042,5.325-8.137V255.75z"/>
			<path style="fill:#008CD0;" d="M391.901,235.325l6.537-2.104v7.97h5.431v5.039h-5.431v14.779c0,3.044,1.056,3.927,2.953,3.927
				c1.162,0,2.002-0.328,2.478-0.605v4.87c-1.004,0.5-2.424,0.941-4.375,0.941c-4.849,0-7.592-2.325-7.592-8.303V246.23h-4.323
				v-5.039h4.323V235.325z"/>
			<path style="fill:#008CD0;" d="M408.359,229.069h6.747v6.753h-6.747V229.069z M409.192,241.191h6.538V269.7h-6.538V241.191z"/>
			<path style="fill:#008CD0;" d="M432.705,240.748c5.535,0,11.912,3.046,11.912,14.672c0,11.954-6.377,14.722-11.912,14.722
				c-5.537,0-11.967-2.767-11.967-14.722C420.737,243.794,427.168,240.748,432.705,240.748z M432.705,265.273
				c4.217,0,5.165-5.096,5.165-9.853c0-4.764-0.948-9.799-5.165-9.799c-4.217,0-5.217,5.036-5.217,9.799
				C427.488,260.176,428.488,265.273,432.705,265.273z"/>
			<path style="fill:#008CD0;" d="M450.315,245.895c0-1.771-0.058-3.429-0.216-4.704h6.115c0.054,1.44,0.214,2.933,0.214,4.375
				h0.156h-0.05c0.948-1.716,2.792-4.818,7.219-4.818c6.171,0,8.014,4.818,8.014,10.573V269.7h-6.535v-17.105
				c0-4.372-1.056-6.198-3.747-6.198c-3.422,0-4.635,3.043-4.635,6.697V269.7h-6.535V245.895z"/>
		</g>
	</g>
	<g>
		<rect x="194.695" y="288.246" style="fill:#008CD0;" width="278.305" height="6.095"/>
	</g>
</g>
</svg>
